<mxfile host="app.diagrams.net" agent="Mozilla/5.0 (Windows NT 10.0; Win64; x64) AppleWebKit/537.36 (KHTML, like Gecko) Chrome/130.0.0.0 Safari/537.36" version="24.8.3">
  <diagram name="Page-1" id="FwckPDWDACkreD_5h-Wm">
    <mxGraphModel dx="2146" dy="752" grid="1" gridSize="10" guides="1" tooltips="1" connect="1" arrows="1" fold="1" page="1" pageScale="1" pageWidth="850" pageHeight="1100" math="0" shadow="0">
      <root>
        <mxCell id="0" />
        <mxCell id="1" parent="0" />
        <mxCell id="CI8cioykrOdM-eLzi9sP-1" value="&lt;font face=&quot;Courier New&quot;&gt;FileService&lt;/font&gt;" style="shape=umlLifeline;perimeter=lifelinePerimeter;whiteSpace=wrap;html=1;container=0;dropTarget=0;collapsible=0;recursiveResize=0;outlineConnect=0;portConstraint=eastwest;newEdgeStyle={&quot;edgeStyle&quot;:&quot;elbowEdgeStyle&quot;,&quot;elbow&quot;:&quot;vertical&quot;,&quot;curved&quot;:0,&quot;rounded&quot;:0};" parent="1" vertex="1">
          <mxGeometry x="-650" y="48" width="120" height="602" as="geometry" />
        </mxCell>
        <mxCell id="CI8cioykrOdM-eLzi9sP-2" value="" style="html=1;points=[];perimeter=orthogonalPerimeter;outlineConnect=0;targetShapes=umlLifeline;portConstraint=eastwest;newEdgeStyle={&quot;edgeStyle&quot;:&quot;elbowEdgeStyle&quot;,&quot;elbow&quot;:&quot;vertical&quot;,&quot;curved&quot;:0,&quot;rounded&quot;:0};" parent="CI8cioykrOdM-eLzi9sP-1" vertex="1">
          <mxGeometry x="55" y="70" width="10" height="190" as="geometry" />
        </mxCell>
        <mxCell id="CI8cioykrOdM-eLzi9sP-3" value="&lt;font style=&quot;font-size: 9px;&quot; face=&quot;Courier New&quot;&gt;deleteFile(filePath&lt;/font&gt;&lt;font style=&quot;font-size: 9px;&quot; face=&quot;Courier New&quot;&gt;)&lt;/font&gt;" style="html=1;verticalAlign=bottom;startArrow=oval;endArrow=block;startSize=8;edgeStyle=elbowEdgeStyle;elbow=vertical;curved=0;rounded=0;" parent="CI8cioykrOdM-eLzi9sP-1" target="CI8cioykrOdM-eLzi9sP-2" edge="1">
          <mxGeometry relative="1" as="geometry">
            <mxPoint x="-170" y="70" as="sourcePoint" />
            <Array as="points">
              <mxPoint x="-150" y="70" />
            </Array>
          </mxGeometry>
        </mxCell>
        <mxCell id="hoY0tgLffa5u1mpjALHn-6" value="" style="html=1;points=[];perimeter=orthogonalPerimeter;outlineConnect=0;targetShapes=umlLifeline;portConstraint=eastwest;newEdgeStyle={&quot;edgeStyle&quot;:&quot;elbowEdgeStyle&quot;,&quot;elbow&quot;:&quot;vertical&quot;,&quot;curved&quot;:0,&quot;rounded&quot;:0};" vertex="1" parent="CI8cioykrOdM-eLzi9sP-1">
          <mxGeometry x="55" y="282" width="10" height="298" as="geometry" />
        </mxCell>
        <mxCell id="hoY0tgLffa5u1mpjALHn-26" value="&lt;font style=&quot;font-size: 11px;&quot; face=&quot;Courier New&quot;&gt;getAbsolutePath(filePath)&lt;/font&gt;" style="html=1;align=left;spacingLeft=2;endArrow=block;rounded=0;edgeStyle=orthogonalEdgeStyle;curved=0;rounded=0;" edge="1" parent="CI8cioykrOdM-eLzi9sP-1" source="CI8cioykrOdM-eLzi9sP-2" target="hoY0tgLffa5u1mpjALHn-42">
          <mxGeometry x="-0.6629" y="10" relative="1" as="geometry">
            <mxPoint x="65" y="72" as="sourcePoint" />
            <Array as="points">
              <mxPoint x="90" y="82" />
              <mxPoint x="90" y="102" />
            </Array>
            <mxPoint x="75" y="112" as="targetPoint" />
            <mxPoint as="offset" />
          </mxGeometry>
        </mxCell>
        <mxCell id="hoY0tgLffa5u1mpjALHn-42" value="" style="html=1;points=[[0,0,0,0,5],[0,1,0,0,-5],[1,0,0,0,5],[1,1,0,0,-5]];perimeter=orthogonalPerimeter;outlineConnect=0;targetShapes=umlLifeline;portConstraint=eastwest;newEdgeStyle={&quot;curved&quot;:0,&quot;rounded&quot;:0};" vertex="1" parent="CI8cioykrOdM-eLzi9sP-1">
          <mxGeometry x="60" y="92" width="10" height="28" as="geometry" />
        </mxCell>
        <mxCell id="CI8cioykrOdM-eLzi9sP-6" value="&lt;font face=&quot;Courier New&quot;&gt;DatabaseService&lt;/font&gt;" style="shape=umlLifeline;perimeter=lifelinePerimeter;whiteSpace=wrap;html=1;container=0;dropTarget=0;collapsible=0;recursiveResize=0;outlineConnect=0;portConstraint=eastwest;newEdgeStyle={&quot;edgeStyle&quot;:&quot;elbowEdgeStyle&quot;,&quot;elbow&quot;:&quot;vertical&quot;,&quot;curved&quot;:0,&quot;rounded&quot;:0};" parent="1" vertex="1">
          <mxGeometry x="-460" y="48" width="120" height="602" as="geometry" />
        </mxCell>
        <mxCell id="hoY0tgLffa5u1mpjALHn-4" value="" style="html=1;points=[];perimeter=orthogonalPerimeter;outlineConnect=0;targetShapes=umlLifeline;portConstraint=eastwest;newEdgeStyle={&quot;edgeStyle&quot;:&quot;elbowEdgeStyle&quot;,&quot;elbow&quot;:&quot;vertical&quot;,&quot;curved&quot;:0,&quot;rounded&quot;:0};" vertex="1" parent="CI8cioykrOdM-eLzi9sP-6">
          <mxGeometry x="55" y="100" width="10" height="140" as="geometry" />
        </mxCell>
        <mxCell id="CI8cioykrOdM-eLzi9sP-4" value="" style="html=1;points=[[0,0,0,0,5],[0,1,0,0,-5],[1,0,0,0,5],[1,1,0,0,-5]];perimeter=orthogonalPerimeter;outlineConnect=0;targetShapes=umlLifeline;portConstraint=eastwest;newEdgeStyle={&quot;curved&quot;:0,&quot;rounded&quot;:0};" parent="CI8cioykrOdM-eLzi9sP-6" vertex="1">
          <mxGeometry x="60" y="132" width="10" height="39" as="geometry" />
        </mxCell>
        <mxCell id="CI8cioykrOdM-eLzi9sP-5" value="&lt;font style=&quot;font-size: 11px;&quot;&gt;&lt;font style=&quot;&quot; face=&quot;Courier New&quot;&gt;checkFileExistence(&lt;/font&gt;&lt;span style=&quot;font-family: &amp;quot;Courier New&amp;quot;; text-align: center;&quot;&gt;fileAbsPath&lt;/span&gt;&lt;font style=&quot;&quot; face=&quot;Courier New&quot;&gt;)&lt;/font&gt;&lt;/font&gt;" style="html=1;align=left;spacingLeft=2;endArrow=block;rounded=0;edgeStyle=orthogonalEdgeStyle;curved=0;rounded=0;" parent="CI8cioykrOdM-eLzi9sP-6" source="hoY0tgLffa5u1mpjALHn-4" target="CI8cioykrOdM-eLzi9sP-4" edge="1">
          <mxGeometry x="-0.6629" y="10" relative="1" as="geometry">
            <mxPoint x="-105" y="110" as="sourcePoint" />
            <Array as="points">
              <mxPoint x="120" y="112" />
              <mxPoint x="120" y="152" />
            </Array>
            <mxPoint x="-110" y="160" as="targetPoint" />
            <mxPoint as="offset" />
          </mxGeometry>
        </mxCell>
        <mxCell id="hoY0tgLffa5u1mpjALHn-7" value="" style="html=1;points=[];perimeter=orthogonalPerimeter;outlineConnect=0;targetShapes=umlLifeline;portConstraint=eastwest;newEdgeStyle={&quot;edgeStyle&quot;:&quot;elbowEdgeStyle&quot;,&quot;elbow&quot;:&quot;vertical&quot;,&quot;curved&quot;:0,&quot;rounded&quot;:0};" vertex="1" parent="CI8cioykrOdM-eLzi9sP-6">
          <mxGeometry x="55" y="282" width="10" height="190" as="geometry" />
        </mxCell>
        <mxCell id="hoY0tgLffa5u1mpjALHn-30" value="" style="html=1;points=[];perimeter=orthogonalPerimeter;outlineConnect=0;targetShapes=umlLifeline;portConstraint=eastwest;newEdgeStyle={&quot;edgeStyle&quot;:&quot;elbowEdgeStyle&quot;,&quot;elbow&quot;:&quot;vertical&quot;,&quot;curved&quot;:0,&quot;rounded&quot;:0};" vertex="1" parent="CI8cioykrOdM-eLzi9sP-6">
          <mxGeometry x="55" y="492" width="10" height="78" as="geometry" />
        </mxCell>
        <mxCell id="CI8cioykrOdM-eLzi9sP-12" value="" style="shape=umlLifeline;perimeter=lifelinePerimeter;whiteSpace=wrap;html=1;container=1;dropTarget=0;collapsible=0;recursiveResize=0;outlineConnect=0;portConstraint=eastwest;newEdgeStyle={&quot;curved&quot;:0,&quot;rounded&quot;:0};participant=umlEntity;size=40;" parent="1" vertex="1">
          <mxGeometry x="20" y="48" width="45" height="602" as="geometry" />
        </mxCell>
        <mxCell id="hoY0tgLffa5u1mpjALHn-23" value="" style="html=1;points=[];perimeter=orthogonalPerimeter;outlineConnect=0;targetShapes=umlLifeline;portConstraint=eastwest;newEdgeStyle={&quot;edgeStyle&quot;:&quot;elbowEdgeStyle&quot;,&quot;elbow&quot;:&quot;vertical&quot;,&quot;curved&quot;:0,&quot;rounded&quot;:0};" vertex="1" parent="CI8cioykrOdM-eLzi9sP-12">
          <mxGeometry x="17" y="422" width="10" height="40" as="geometry" />
        </mxCell>
        <mxCell id="CI8cioykrOdM-eLzi9sP-14" value="&lt;span style=&quot;font-family: &amp;quot;Courier New&amp;quot;;&quot;&gt;files table&lt;/span&gt;" style="text;html=1;align=center;verticalAlign=middle;whiteSpace=wrap;rounded=0;" parent="1" vertex="1">
          <mxGeometry x="-12.5" y="18" width="110" height="30" as="geometry" />
        </mxCell>
        <mxCell id="CI8cioykrOdM-eLzi9sP-15" value="&lt;font size=&quot;1&quot; face=&quot;Courier New&quot;&gt;[file!=exists]&lt;/font&gt;" style="text;html=1;align=center;verticalAlign=middle;whiteSpace=wrap;rounded=0;" parent="1" vertex="1">
          <mxGeometry x="-710" y="250" width="110" height="30" as="geometry" />
        </mxCell>
        <mxCell id="CI8cioykrOdM-eLzi9sP-16" value="opt" style="shape=umlFrame;whiteSpace=wrap;html=1;pointerEvents=0;" parent="1" vertex="1">
          <mxGeometry x="-710" y="220" width="340" height="110" as="geometry" />
        </mxCell>
        <mxCell id="CI8cioykrOdM-eLzi9sP-17" value="&lt;font face=&quot;Courier New&quot; style=&quot;font-size: 11px;&quot;&gt;ErrorOccured&lt;/font&gt;" style="html=1;verticalAlign=bottom;endArrow=open;dashed=1;endSize=8;curved=0;rounded=0;" parent="1" edge="1">
          <mxGeometry x="0.4681" y="19" relative="1" as="geometry">
            <mxPoint x="-595" y="300" as="sourcePoint" />
            <mxPoint x="-820" y="302" as="targetPoint" />
            <mxPoint as="offset" />
          </mxGeometry>
        </mxCell>
        <mxCell id="CI8cioykrOdM-eLzi9sP-20" value="" style="shape=umlLifeline;perimeter=lifelinePerimeter;whiteSpace=wrap;html=1;container=1;dropTarget=0;collapsible=0;recursiveResize=0;outlineConnect=0;portConstraint=eastwest;newEdgeStyle={&quot;curved&quot;:0,&quot;rounded&quot;:0};participant=umlEntity;size=40;" parent="1" vertex="1">
          <mxGeometry x="-168" y="50" width="44" height="602" as="geometry" />
        </mxCell>
        <mxCell id="hoY0tgLffa5u1mpjALHn-8" value="" style="html=1;points=[];perimeter=orthogonalPerimeter;outlineConnect=0;targetShapes=umlLifeline;portConstraint=eastwest;newEdgeStyle={&quot;edgeStyle&quot;:&quot;elbowEdgeStyle&quot;,&quot;elbow&quot;:&quot;vertical&quot;,&quot;curved&quot;:0,&quot;rounded&quot;:0};" vertex="1" parent="CI8cioykrOdM-eLzi9sP-20">
          <mxGeometry x="17" y="280" width="10" height="40" as="geometry" />
        </mxCell>
        <mxCell id="hoY0tgLffa5u1mpjALHn-35" value="" style="html=1;points=[];perimeter=orthogonalPerimeter;outlineConnect=0;targetShapes=umlLifeline;portConstraint=eastwest;newEdgeStyle={&quot;edgeStyle&quot;:&quot;elbowEdgeStyle&quot;,&quot;elbow&quot;:&quot;vertical&quot;,&quot;curved&quot;:0,&quot;rounded&quot;:0};" vertex="1" parent="CI8cioykrOdM-eLzi9sP-20">
          <mxGeometry x="17" y="500" width="10" height="40" as="geometry" />
        </mxCell>
        <mxCell id="CI8cioykrOdM-eLzi9sP-22" value="&lt;span style=&quot;font-family: &amp;quot;Courier New&amp;quot;;&quot;&gt;segments table&lt;/span&gt;" style="text;html=1;align=center;verticalAlign=middle;whiteSpace=wrap;rounded=0;" parent="1" vertex="1">
          <mxGeometry x="-200" y="18" width="108" height="30" as="geometry" />
        </mxCell>
        <mxCell id="CI8cioykrOdM-eLzi9sP-23" value="" style="shape=umlLifeline;perimeter=lifelinePerimeter;whiteSpace=wrap;html=1;container=1;dropTarget=0;collapsible=0;recursiveResize=0;outlineConnect=0;portConstraint=eastwest;newEdgeStyle={&quot;curved&quot;:0,&quot;rounded&quot;:0};participant=umlEntity;size=40;" parent="1" vertex="1">
          <mxGeometry x="-70.00000000000006" y="50" width="44" height="602" as="geometry" />
        </mxCell>
        <mxCell id="hoY0tgLffa5u1mpjALHn-11" value="" style="html=1;points=[];perimeter=orthogonalPerimeter;outlineConnect=0;targetShapes=umlLifeline;portConstraint=eastwest;newEdgeStyle={&quot;edgeStyle&quot;:&quot;elbowEdgeStyle&quot;,&quot;elbow&quot;:&quot;vertical&quot;,&quot;curved&quot;:0,&quot;rounded&quot;:0};" vertex="1" parent="CI8cioykrOdM-eLzi9sP-23">
          <mxGeometry x="17.000000000000057" y="340" width="10" height="40" as="geometry" />
        </mxCell>
        <mxCell id="CI8cioykrOdM-eLzi9sP-25" value="&lt;span style=&quot;font-family: &amp;quot;Courier New&amp;quot;;&quot;&gt;data table&lt;/span&gt;" style="text;html=1;align=center;verticalAlign=middle;whiteSpace=wrap;rounded=0;" parent="1" vertex="1">
          <mxGeometry x="-103.00000000000006" y="18" width="110" height="30" as="geometry" />
        </mxCell>
        <mxCell id="CI8cioykrOdM-eLzi9sP-70" value="" style="html=1;verticalAlign=bottom;endArrow=open;dashed=1;endSize=8;curved=0;rounded=0;" parent="1" edge="1">
          <mxGeometry relative="1" as="geometry">
            <mxPoint x="-595" y="620.0033333333334" as="sourcePoint" />
            <mxPoint x="-820" y="620.0033333333333" as="targetPoint" />
          </mxGeometry>
        </mxCell>
        <mxCell id="CI8cioykrOdM-eLzi9sP-71" value="&lt;font style=&quot;font-size: 11px;&quot; face=&quot;Courier New&quot;&gt;return code&lt;/font&gt;" style="edgeLabel;html=1;align=center;verticalAlign=middle;resizable=0;points=[];fontStyle=0" parent="CI8cioykrOdM-eLzi9sP-70" vertex="1" connectable="0">
          <mxGeometry x="0.0611" y="-4" relative="1" as="geometry">
            <mxPoint x="-1" y="-6" as="offset" />
          </mxGeometry>
        </mxCell>
        <mxCell id="hoY0tgLffa5u1mpjALHn-5" value="&lt;font face=&quot;Courier New&quot; style=&quot;font-size: 11px;&quot;&gt;ErrorOccured&lt;/font&gt;" style="html=1;verticalAlign=bottom;endArrow=open;dashed=1;endSize=8;curved=0;rounded=0;" edge="1" parent="1" source="hoY0tgLffa5u1mpjALHn-4" target="CI8cioykrOdM-eLzi9sP-2">
          <mxGeometry relative="1" as="geometry">
            <mxPoint x="-670" y="460" as="sourcePoint" />
            <mxPoint x="-590" y="300" as="targetPoint" />
            <Array as="points">
              <mxPoint x="-500" y="280" />
            </Array>
          </mxGeometry>
        </mxCell>
        <mxCell id="hoY0tgLffa5u1mpjALHn-9" style="edgeStyle=elbowEdgeStyle;rounded=0;orthogonalLoop=1;jettySize=auto;html=1;elbow=vertical;curved=0;" edge="1" parent="1" source="hoY0tgLffa5u1mpjALHn-7" target="hoY0tgLffa5u1mpjALHn-8">
          <mxGeometry relative="1" as="geometry">
            <Array as="points">
              <mxPoint x="-260" y="340" />
            </Array>
          </mxGeometry>
        </mxCell>
        <mxCell id="hoY0tgLffa5u1mpjALHn-10" value="&lt;font style=&quot;font-size: 11px;&quot; face=&quot;Courier New&quot;&gt;update counts&lt;/font&gt;" style="edgeLabel;html=1;align=center;verticalAlign=middle;resizable=0;points=[];" vertex="1" connectable="0" parent="hoY0tgLffa5u1mpjALHn-9">
          <mxGeometry x="-0.0773" y="2" relative="1" as="geometry">
            <mxPoint x="2" y="-8" as="offset" />
          </mxGeometry>
        </mxCell>
        <mxCell id="hoY0tgLffa5u1mpjALHn-12" style="edgeStyle=elbowEdgeStyle;rounded=0;orthogonalLoop=1;jettySize=auto;html=1;elbow=vertical;curved=0;" edge="1" parent="1" source="hoY0tgLffa5u1mpjALHn-7" target="hoY0tgLffa5u1mpjALHn-11">
          <mxGeometry relative="1" as="geometry">
            <mxPoint x="-390" y="410" as="sourcePoint" />
            <mxPoint x="-146" y="410" as="targetPoint" />
            <Array as="points">
              <mxPoint x="-250" y="400" />
            </Array>
          </mxGeometry>
        </mxCell>
        <mxCell id="hoY0tgLffa5u1mpjALHn-13" value="&lt;font style=&quot;font-size: 11px;&quot; face=&quot;Courier New&quot;&gt;delete data&lt;/font&gt;" style="edgeLabel;html=1;align=center;verticalAlign=middle;resizable=0;points=[];" vertex="1" connectable="0" parent="hoY0tgLffa5u1mpjALHn-12">
          <mxGeometry x="-0.0773" y="2" relative="1" as="geometry">
            <mxPoint x="2" y="-8" as="offset" />
          </mxGeometry>
        </mxCell>
        <mxCell id="hoY0tgLffa5u1mpjALHn-15" value="&lt;font face=&quot;Courier New&quot; style=&quot;font-size: 11px;&quot;&gt;rows affected&lt;/font&gt;" style="html=1;verticalAlign=bottom;endArrow=open;dashed=1;endSize=8;curved=0;rounded=0;" edge="1" parent="1" source="hoY0tgLffa5u1mpjALHn-8" target="hoY0tgLffa5u1mpjALHn-7">
          <mxGeometry x="-0.2705" y="20" relative="1" as="geometry">
            <mxPoint x="-585" y="310" as="sourcePoint" />
            <mxPoint x="-810" y="312" as="targetPoint" />
            <mxPoint as="offset" />
            <Array as="points">
              <mxPoint x="-270" y="360" />
            </Array>
          </mxGeometry>
        </mxCell>
        <mxCell id="hoY0tgLffa5u1mpjALHn-16" value="&lt;font face=&quot;Courier New&quot; style=&quot;font-size: 11px;&quot;&gt;rows affected&lt;/font&gt;" style="html=1;verticalAlign=bottom;endArrow=open;dashed=1;endSize=8;curved=0;rounded=0;" edge="1" parent="1">
          <mxGeometry x="0.0331" y="20" relative="1" as="geometry">
            <mxPoint x="-53" y="420" as="sourcePoint" />
            <mxPoint x="-395" y="420" as="targetPoint" />
            <mxPoint as="offset" />
          </mxGeometry>
        </mxCell>
        <mxCell id="hoY0tgLffa5u1mpjALHn-19" style="edgeStyle=elbowEdgeStyle;rounded=0;orthogonalLoop=1;jettySize=auto;html=1;elbow=vertical;curved=0;" edge="1" target="hoY0tgLffa5u1mpjALHn-23" parent="1">
          <mxGeometry relative="1" as="geometry">
            <mxPoint x="-395" y="480" as="sourcePoint" />
            <mxPoint x="-146" y="490" as="targetPoint" />
            <Array as="points">
              <mxPoint x="-250" y="480" />
            </Array>
          </mxGeometry>
        </mxCell>
        <mxCell id="hoY0tgLffa5u1mpjALHn-20" value="&lt;font style=&quot;font-size: 11px;&quot; face=&quot;Courier New&quot;&gt;delete entry&lt;/font&gt;" style="edgeLabel;html=1;align=center;verticalAlign=middle;resizable=0;points=[];" vertex="1" connectable="0" parent="hoY0tgLffa5u1mpjALHn-19">
          <mxGeometry x="-0.0773" y="2" relative="1" as="geometry">
            <mxPoint x="2" y="-8" as="offset" />
          </mxGeometry>
        </mxCell>
        <mxCell id="hoY0tgLffa5u1mpjALHn-21" value="&lt;font face=&quot;Courier New&quot; style=&quot;font-size: 11px;&quot;&gt;rows affected&lt;/font&gt;" style="html=1;verticalAlign=bottom;endArrow=open;dashed=1;endSize=8;curved=0;rounded=0;" edge="1" parent="1" source="hoY0tgLffa5u1mpjALHn-23">
          <mxGeometry x="0.0331" y="20" relative="1" as="geometry">
            <mxPoint x="-33" y="500" as="sourcePoint" />
            <mxPoint x="-395" y="500" as="targetPoint" />
            <mxPoint as="offset" />
          </mxGeometry>
        </mxCell>
        <mxCell id="hoY0tgLffa5u1mpjALHn-24" style="edgeStyle=elbowEdgeStyle;rounded=0;orthogonalLoop=1;jettySize=auto;html=1;elbow=vertical;curved=0;" edge="1" parent="1" source="CI8cioykrOdM-eLzi9sP-2" target="hoY0tgLffa5u1mpjALHn-4">
          <mxGeometry relative="1" as="geometry">
            <Array as="points">
              <mxPoint x="-490" y="170" />
            </Array>
          </mxGeometry>
        </mxCell>
        <mxCell id="hoY0tgLffa5u1mpjALHn-25" value="&lt;font face=&quot;Courier New&quot; style=&quot;font-size: 11px;&quot;&gt;&lt;font style=&quot;&quot;&gt;deleteFile(fileAbsPath&lt;/font&gt;&lt;font style=&quot;&quot;&gt;)&lt;/font&gt;&lt;/font&gt;" style="edgeLabel;html=1;align=center;verticalAlign=middle;resizable=0;points=[];labelBackgroundColor=none;" vertex="1" connectable="0" parent="hoY0tgLffa5u1mpjALHn-24">
          <mxGeometry x="0.1815" y="3" relative="1" as="geometry">
            <mxPoint x="-11" y="-7" as="offset" />
          </mxGeometry>
        </mxCell>
        <mxCell id="hoY0tgLffa5u1mpjALHn-27" value="" style="html=1;verticalAlign=bottom;endArrow=open;dashed=1;endSize=8;curved=0;rounded=0;" edge="1" parent="1">
          <mxGeometry x="0.0331" y="20" relative="1" as="geometry">
            <mxPoint x="-405" y="510" as="sourcePoint" />
            <mxPoint x="-585" y="510" as="targetPoint" />
            <mxPoint as="offset" />
          </mxGeometry>
        </mxCell>
        <mxCell id="hoY0tgLffa5u1mpjALHn-33" style="edgeStyle=elbowEdgeStyle;rounded=0;orthogonalLoop=1;jettySize=auto;html=1;elbow=vertical;curved=0;" edge="1" parent="1" source="hoY0tgLffa5u1mpjALHn-6" target="hoY0tgLffa5u1mpjALHn-30">
          <mxGeometry relative="1" as="geometry">
            <mxPoint x="-585" y="570" as="sourcePoint" />
            <mxPoint x="-405" y="570" as="targetPoint" />
            <Array as="points">
              <mxPoint x="-480" y="550" />
            </Array>
          </mxGeometry>
        </mxCell>
        <mxCell id="hoY0tgLffa5u1mpjALHn-34" value="&lt;font face=&quot;Courier New&quot;&gt;&lt;font style=&quot;font-size: 9px;&quot;&gt;clearSegments&lt;/font&gt;&lt;/font&gt;" style="edgeLabel;html=1;align=center;verticalAlign=middle;resizable=0;points=[];" vertex="1" connectable="0" parent="hoY0tgLffa5u1mpjALHn-33">
          <mxGeometry x="0.1815" y="3" relative="1" as="geometry">
            <mxPoint x="-11" y="-7" as="offset" />
          </mxGeometry>
        </mxCell>
        <mxCell id="hoY0tgLffa5u1mpjALHn-38" style="edgeStyle=elbowEdgeStyle;rounded=0;orthogonalLoop=1;jettySize=auto;html=1;elbow=vertical;curved=0;" edge="1" parent="1" source="hoY0tgLffa5u1mpjALHn-30" target="hoY0tgLffa5u1mpjALHn-35">
          <mxGeometry relative="1" as="geometry">
            <mxPoint x="-390" y="560" as="sourcePoint" />
            <mxPoint x="-146" y="560" as="targetPoint" />
            <Array as="points">
              <mxPoint x="-270" y="560" />
            </Array>
          </mxGeometry>
        </mxCell>
        <mxCell id="hoY0tgLffa5u1mpjALHn-39" value="&lt;font face=&quot;Courier New&quot;&gt;delete&lt;/font&gt;" style="edgeLabel;html=1;align=center;verticalAlign=middle;resizable=0;points=[];" vertex="1" connectable="0" parent="hoY0tgLffa5u1mpjALHn-38">
          <mxGeometry x="-0.4848" y="3" relative="1" as="geometry">
            <mxPoint x="52" y="-17" as="offset" />
          </mxGeometry>
        </mxCell>
        <mxCell id="hoY0tgLffa5u1mpjALHn-40" value="&lt;font face=&quot;Courier New&quot; style=&quot;font-size: 11px;&quot;&gt;rows affected&lt;/font&gt;" style="html=1;verticalAlign=bottom;endArrow=open;dashed=1;endSize=8;curved=0;rounded=0;" edge="1" parent="1">
          <mxGeometry x="0.0331" y="20" relative="1" as="geometry">
            <mxPoint x="-151" y="580" as="sourcePoint" />
            <mxPoint x="-395" y="580" as="targetPoint" />
            <mxPoint as="offset" />
          </mxGeometry>
        </mxCell>
        <mxCell id="hoY0tgLffa5u1mpjALHn-41" value="&lt;font face=&quot;Courier New&quot; style=&quot;font-size: 11px;&quot;&gt;rows affected&lt;/font&gt;" style="html=1;verticalAlign=bottom;endArrow=open;dashed=1;endSize=8;curved=0;rounded=0;" edge="1" parent="1">
          <mxGeometry x="0.0331" y="20" relative="1" as="geometry">
            <mxPoint x="-405" y="610" as="sourcePoint" />
            <mxPoint x="-585" y="610" as="targetPoint" />
            <mxPoint as="offset" />
          </mxGeometry>
        </mxCell>
      </root>
    </mxGraphModel>
  </diagram>
</mxfile>
